<svg id="Layer_1" data-name="Layer 1" xmlns="http://www.w3.org/2000/svg" viewBox="0 0 504 288"><defs><style>.cls-1{fill:#c9ccd0;}.cls-2{fill:#b32025;}.cls-3{fill:#005292;}.cls-4{fill:#abafb4;}</style></defs><title>MMCI_All_Logos</title><rect class="cls-1" x="365.75" y="123.99" width="19.4" height="19.4"/><rect class="cls-1" x="390.12" y="123.99" width="19.4" height="19.4"/><rect class="cls-1" x="414.48" y="123.99" width="19.4" height="19.4"/><rect class="cls-1" x="365.75" y="100.35" width="19.4" height="19.4"/><rect class="cls-1" x="390.12" y="100.35" width="19.4" height="19.4"/><rect class="cls-1" x="414.48" y="100.35" width="19.4" height="19.4"/><rect class="cls-1" x="365.75" y="76.72" width="19.4" height="19.4"/><rect class="cls-1" x="390.12" y="76.72" width="19.4" height="19.4"/><rect class="cls-2" x="414.6" y="76.55" width="19.4" height="19.4"/><path class="cls-3" d="M144.62,76.59q5.88.34,9.17,3.84c2,2.22,3,5.23,3,9v53.7H138.15V91.63H120.71v51.51H102.08V91.63H84.8v51.51H66.12V76.59Z"/><path class="cls-3" d="M240.72,76.59q5.88.34,9.17,3.84c2,2.22,3,5.23,3,9v53.7H234.25V91.63H216.82v51.51H198.18V91.63H180.9v51.51H162.22V76.59Z"/><path class="cls-3" d="M277,128.84h52.7v14.3H270.63q-6.08,0-9.22-3.53a13.71,13.71,0,0,1-3.08-9.27V90.64a12.38,12.38,0,0,1,5.17-10.26q4.85-3.78,12.56-3.79H329.7v15H277Z"/><rect class="cls-3" x="335.15" y="76.59" width="19.4" height="66.69"/><path class="cls-4" d="M81.5,160.4h7.23L104,196.32H95.81l-3.26-8H77.47l-3.26,8h-8Zm8.25,21L85,169.83l-4.74,11.56Z"/><path class="cls-4" d="M108.5,181V160.66h7.85v20.17c0,5.81,2.9,8.81,7.69,8.81s7.69-2.9,7.69-8.55V160.66h7.85v20.12c0,10.8-6.06,16.1-15.64,16.1S108.5,191.53,108.5,181Z"/><path class="cls-4" d="M156.7,167.89H145.85v-7.23H175.4v7.23H164.54v28.43H156.7Z"/><path class="cls-4" d="M179.12,178.59v-.1c0-10.14,8-18.45,19-18.45s18.9,8.21,18.9,18.34v.11c0,10.14-8,18.44-19,18.44S179.12,188.73,179.12,178.59Zm29.7,0v-.1c0-6.12-4.48-11.21-10.8-11.21s-10.7,5-10.7,11.1v.11c0,6.11,4.48,11.21,10.8,11.21S208.82,184.7,208.82,178.59Z"/><path class="cls-4" d="M224.82,160.66h8.46l9.37,15.08L252,160.66h8.46v35.66h-7.79V173l-10,15.23h-.2l-9.94-15.08v23.13h-7.69Z"/><path class="cls-4" d="M282.09,160.4h7.23l15.29,35.92H296.4l-3.26-8H278.06l-3.26,8h-8Zm8.25,21-4.74-11.56-4.74,11.56Z"/><path class="cls-4" d="M314.64,167.89H303.79v-7.23h29.55v7.23H322.49v28.43h-7.85Z"/><path class="cls-4" d="M340.53,160.66h7.84v35.66h-7.84Z"/><path class="cls-4" d="M356.52,178.59v-.1c0-10.14,8-18.45,19-18.45s18.9,8.21,18.9,18.34v.11c0,10.14-8,18.44-19,18.44S356.52,188.73,356.52,178.59Zm29.71,0v-.1c0-6.12-4.49-11.21-10.8-11.21s-10.7,5-10.7,11.1v.11c0,6.11,4.48,11.21,10.8,11.21S386.23,184.7,386.23,178.59Z"/><path class="cls-4" d="M402.23,160.66h7.23l16.71,22v-22h7.75v35.66h-6.68L410,173.65v22.67h-7.74Z"/></svg>